<?xml version="1.0" encoding="utf-8"?>
<!-- Generator: Adobe Illustrator 26.0.3, SVG Export Plug-In . SVG Version: 6.00 Build 0)  -->
<svg version="1.0" id="katman_1" xmlns="http://www.w3.org/2000/svg" xmlns:xlink="http://www.w3.org/1999/xlink" x="0px" y="0px"
	 viewBox="0 0 600 450" style="enable-background:new 0 0 600 450;" xml:space="preserve">
<style type="text/css">
	
		.st0{clip-path:url(#SVGID_00000113314558145565428630000007771515078518151590_);fill-rule:evenodd;clip-rule:evenodd;fill:#EA5539;}
	.st1{fill-rule:evenodd;clip-rule:evenodd;fill:#EA5539;}
</style>
<g>
	<g>
		<defs>
			<rect id="SVGID_1_" x="69" y="183.9" width="462" height="83.2"/>
		</defs>
		<clipPath id="SVGID_00000155824688319820026580000012928300794511568299_">
			<use xlink:href="#SVGID_1_"  style="overflow:visible;"/>
		</clipPath>
		
			<path style="clip-path:url(#SVGID_00000155824688319820026580000012928300794511568299_);fill-rule:evenodd;clip-rule:evenodd;fill:#EA5539;" d="
			M498.5,224.3c6.2-1.4,12.4,1.1,15.9,6l-27.5,6.2C487.9,230.7,492.3,225.7,498.5,224.3L498.5,224.3z M514.6,247.2
			c-2.2,3.2-5.5,5.4-9.2,6.2c-6.3,1.4-12.5-1.2-16-6.1l27.6-6.2l4.5-1l8.6-1.9c0-1.9-0.3-3.7-0.7-5.5c-3.5-14.8-18.6-24.1-33.7-20.7
			c-15.1,3.4-24.6,18.2-21.1,33.1c3.5,14.8,18.6,24.1,33.7,20.7c8.9-2,15.9-8,19.4-15.6L514.6,247.2z M514.6,247.2"/>
	</g>
	<path class="st1" d="M449.7,265v-39.4h-8.5v-13.4h8.5v-18.5h14.4v18.5h10.8v13.4h-10.8V265H449.7z M449.7,265"/>
	<path class="st1" d="M422.1,265H436v-52.8h-13.9V265z M420.3,193.7c0-4.9,3.8-8.6,8.8-8.6c5,0,8.7,3.7,8.7,8.6
		c0,4.9-3.7,8.6-8.7,8.6C424.2,202.4,420.3,198.6,420.3,193.7L420.3,193.7z M417.3,212.4c-7.1,0.4-11.3,1.5-15.6,4.5v-4.7h-13.9V265
		h13.9v-25.9c0-8.1,2-12.8,15.6-13.2V212.4z M339.6,239.5c0.3,7.7,7.1,14.1,15.3,14.1c8.3,0,15.1-6.8,15.1-14.8
		c0-7.9-6.8-14.7-15.1-14.7c-8.2,0-14.9,6.6-15.3,14.1V239.5z M326.1,265v-77.9l13.9-3.2v32.3c4.3-3.4,9.4-4.9,14.9-4.9
		c15.9,0,28.5,12.2,28.5,27.5c0,15.2-12.7,27.6-28.5,27.6c-5.5,0-10.6-1.4-14.9-4.9v3.4H326.1z M326.1,265"/>
	<g>
		<path class="st1" d="M296.4,265v-39.6h-8.5v-13.1h8.5v-18.5l14.4-3.3v21.7h10.8v13.1h-10.8V265H296.4z M296.4,265"/>
		<path class="st1" d="M270.9,265v-28.2c0-10.2-5.5-12.4-11.1-12.4c-5.5,0-11.1,2.1-11.1,12.2V265h-13.9v-52.8h13.9v3.9
			c3.1-2.2,6.8-4.9,14.2-4.9c11.8,0,22,6.8,22,23.3V265H270.9z M199.5,224.3c6.2-1.4,12.4,1.1,15.9,6l-27.5,6.2
			C188.8,230.7,193.3,225.7,199.5,224.3L199.5,224.3z M215.5,247.2c-2.2,3.2-5.5,5.4-9.2,6.2c-6.3,1.4-12.5-1.2-16-6.1l27.6-6.2
			l4.5-1l8.6-1.9c-0.1-1.9-0.3-3.7-0.7-5.5c-3.5-14.8-18.6-24.1-33.7-20.7c-15.1,3.4-24.6,18.2-21.1,33.1
			c3.5,14.8,18.6,24.1,33.7,20.7c8.9-2,15.9-8,19.3-15.6L215.5,247.2z M215.5,247.2"/>
		<path class="st1" d="M142.7,265L121,212.2h15.2l13.7,35.8l13.8-35.8h15.2L157.3,265H142.7z M142.7,265"/>
		<path class="st1" d="M93.7,224.3c6.2-1.4,12.4,1.1,15.9,6l-27.5,6.2C83.1,230.7,87.5,225.7,93.7,224.3L93.7,224.3z M109.8,247.2
			c-2.2,3.2-5.5,5.4-9.2,6.2c-6.3,1.4-12.5-1.2-16-6.1l27.6-6.2l4.5-1l8.6-1.9c0-1.8-0.3-3.7-0.7-5.5c-3.5-14.8-18.6-24.1-33.7-20.7
			c-15.1,3.4-24.6,18.2-21.1,33.1c3.5,14.8,18.6,24.1,33.8,20.7c8.9-2,15.9-8,19.3-15.6L109.8,247.2L109.8,247.2z M109.8,247.2"/>
	</g>
</g>
</svg>
