<?xml version="1.0" encoding="utf-8"?>
<!-- Generator: Adobe Illustrator 25.0.1, SVG Export Plug-In . SVG Version: 6.00 Build 0)  -->
<svg version="1.0" id="katman_1" xmlns="http://www.w3.org/2000/svg" xmlns:xlink="http://www.w3.org/1999/xlink" x="0px" y="0px"
	 viewBox="0 0 560 400" style="enable-background:new 0 0 560 400;" xml:space="preserve">
<style type="text/css">
	.st0{fill-rule:evenodd;clip-rule:evenodd;fill:url(#SVGID_1_);}
	.st1{fill:#FFFFFF;}
</style>
<g transform="matrix(1.25 0 0 1.25 130 50)">
	
		<linearGradient id="SVGID_1_" gradientUnits="userSpaceOnUse" x1="-199.0146" y1="361.3958" x2="-198.0146" y2="361.3958" gradientTransform="matrix(-75 174.99 174.99 75 -78011.5859 7758.8169)">
		<stop  offset="0" style="stop-color:#37AEE2"/>
		<stop  offset="1" style="stop-color:#1E96C8"/>
	</linearGradient>
	<circle class="st0" cx="120" cy="120" r="120"/>
	<path class="st1" d="M44.7,125.9c14-7.7,29.7-14.2,44.3-20.7c25.2-10.6,50.4-21.1,76-30.8c5-1.7,13.9-3.3,14.8,4.1
		c-0.5,10.4-2.4,20.8-3.8,31.1c-3.4,22.8-7.4,45.5-11.3,68.2c-1.3,7.6-10.8,11.5-16.9,6.6c-14.6-9.8-29.2-19.6-43.6-29.6
		c-4.7-4.8-0.3-11.7,3.9-15.1c12-11.8,24.7-21.9,36.1-34.3c3.1-7.4-6-1.2-9,0.7c-16.4,11.3-32.4,23.3-49.8,33.3
		c-8.8,4.9-19.2,0.7-28-2C49.5,134.2,37.9,130.9,44.7,125.9L44.7,125.9z"/>
</g>
</svg>
